<?xml version="1.0" encoding="UTF-8" standalone="no"?>
<svg
   version="1.1"
   id="Layer_1"
   x="0"
   y="0"
   viewBox="0 0 1024 576"
   xml:space="preserve"
   sodipodi:docname="zig-warsaw.svg"
   width="1024"
   height="576"
   inkscape:version="1.2.2 (b0a84865, 2022-12-01)"
   inkscape:export-filename="zig-warsaw.png"
   inkscape:export-xdpi="96"
   inkscape:export-ydpi="96"
   xmlns:inkscape="http://www.inkscape.org/namespaces/inkscape"
   xmlns:sodipodi="http://sodipodi.sourceforge.net/DTD/sodipodi-0.dtd"
   xmlns="http://www.w3.org/2000/svg"
   xmlns:svg="http://www.w3.org/2000/svg"><defs
   id="defs164" /><sodipodi:namedview
   id="namedview162"
   pagecolor="#ffffff"
   bordercolor="#000000"
   borderopacity="0.25"
   inkscape:showpageshadow="2"
   inkscape:pageopacity="0.0"
   inkscape:pagecheckerboard="0"
   inkscape:deskcolor="#d1d1d1"
   showgrid="false"
   inkscape:zoom="1.1588694"
   inkscape:cx="502.64506"
   inkscape:cy="273.97392"
   inkscape:window-width="1728"
   inkscape:window-height="1051"
   inkscape:window-x="0"
   inkscape:window-y="38"
   inkscape:window-maximized="1"
   inkscape:current-layer="Layer_1" />
  <style
   id="style107">
    .st2{fill-rule:evenodd;clip-rule:evenodd;fill:#303f42}.st3{fill:#f0ce41}.st3,.st8{fill-rule:evenodd;clip-rule:evenodd}.st9{fill:#f7a41d}
  </style>
  
  
  
  
  
  
  
  
  
  
  
  
  
  
  
  
  
  
  
  
  
  
  
  
  
  
  
  
  
  
  
  
  
  
  
  
  
  
  
  
  
  
  
  
  
  
  
  
  
<style
   id="style631">
#text { fill: #121212 }
@media (prefers-color-scheme: dark) { #text { fill: #f2f2f2 } }
</style><g
   id="g488"
   transform="matrix(1.0895915,0,0,1.0895915,-2.5847687,42.363559)"><g
     id="g1350"
     transform="matrix(1.7338696,0,0,1.7338696,396.98272,-113.53249)"><path
       id="shape0"
       d="m 195.86519,143.72535 -0.88445,-10.24489 -3.02187,-10.02378 -6.26487,-10.61341 -6.92819,-8.25488 -8.32858,-6.485971 -9.43414,-4.643367 -10.76082,-2.874466 -8.69711,-0.737042 -8.62339,1.031859 -11.49786,3.021874 -8.40229,3.758917 -8.10746,6.264856 -7.517836,8.5497 -5.89634,11.35045 -2.358535,5.82263 -1.621493,9.95008 v 10.24489 l 1.179267,7.73894 3.316691,9.06562 5.527819,10.09748 8.844507,8.91822 7.07561,5.3067 10.02378,4.93818 5.45411,1.6215 6.55967,0.29482 3.3904,0.81074 8.03377,0.0737 8.99191,-3.3167 9.36044,-5.3804 13.48788,-10.31859 11.49786,-13.709 5.08559,-8.18116 0.95816,-5.38042 v -4.42225 c 0,0 -0.14741,-1.40038 -0.44223,-4.27484 z"
       fill-rule="evenodd"
       clip-rule="evenodd"
       fill="#c0fdf1"
       fill-opacity="0.4863"
       style="stroke-width:0.737042" /><path
       id="shape1"
       d="m 200.43486,147.26315 4.56966,5.01188 8.7708,18.05754 4.56966,9.72897 0.73705,5.45411 v 4.86448 l -1.91631,1.91632 -0.58963,1.10556 0.73703,11.27675 -0.0737,3.98003 5.1593,-2.80076 5.1593,-3.3904 1.9163,7.51783 -0.58963,20.34238 0.36852,4.20113 3.5378,20.26867 0.58964,13.19307 -0.58964,10.6134 -2.50594,2.80077 -6.55968,1.8426 -4.20114,-0.66334 -11.05563,-9.87637 -9.21304,-6.85449 -6.26485,-5.74893 -2.72707,-4.34855 -0.29481,0.29481 -0.81075,0.66334 -3.02187,6.19116 -5.97005,6.48598 -1.03186,0.73703 3.24299,8.69711 0.44223,6.48597 -2.94817,3.4641 -4.27484,2.57965 -2.80077,-0.22112 -5.38041,-2.50594 -6.78079,-4.93819 -6.63338,-6.63337 -3.98003,-7.59154 -0.22111,-3.90633 1.99001,-8.03375 3.31669,-6.33857 4.56966,-8.40229 0.95816,-1.54779 27.12316,-14.81455 -0.81074,-0.58963 -6.11746,-1.25298 -3.68521,-0.88445 -3.75891,-2.65335 -2.13743,-2.80076 -1.25297,-3.83262 -0.58963,-2.94817 -2.87447,-2.57964 -3.46409,-1.84262 -4.49596,0.66334 -2.57965,1.54779 -0.66334,-0.95815 -1.25298,-1.32668 -1.7689,-0.22111 -2.94817,1.40038 -3.5378,2.65335 -1.25297,0.14741 -4.12744,-3.83262 -2.13742,-3.90632 0.36852,-1.10557 5.233,1.10557 10.61341,-0.88445 8.5497,-4.27485 12.67712,-7.88636 9.36044,-8.32857 6.63338,-7.0019 3.75892,-5.30672 4.05373,-7.96005 1.32668,-4.12744 0.58963,-4.56966 c -0.22111,-0.0737 -0.51593,-1.91632 -1.03186,-5.60153 z"
       fill-rule="evenodd"
       clip-rule="evenodd"
       fill="#f7a41d"
       style="stroke-width:0.737042" /><path
       id="shape2"
       class="st2"
       d="m 144.05111,226.3478 -15.33048,13.19305 -6.63338,-0.51593 -1.91632,-3.6852 2.43225,-3.24299 2.21112,1.47408 1.03186,0.22112 3.31669,-2.06372 5.0856,-0.88444 1.76889,-2.13743 0.51593,-2.72706 3.53781,-0.51593 2.65335,-1.25297 c -0.14741,0.14741 0.29482,0.81075 1.32668,2.13742 z"
       style="stroke-width:0.737042" /><path
       id="shape3"
       class="st2"
       d="m 148.9893,237.55084 4.64336,-2.06371 4.71707,-1.7689 4.42226,1.17927 6.70709,-6.9282 2.87446,-4.56966 0.73705,-2.06372 1.62148,0.81074 3.3904,2.21113 7.14931,1.03186 1.6952,0.95816 -33.75655,18.64716 -1.9163,-1.47408 -2.57965,-4.05372 c 0.0737,0.1474 0.14741,-0.51593 0.29482,-1.91633 z"
       style="stroke-width:0.737042" /><path
       id="shape4"
       class="st2"
       d="m 195.9389,140.77718 11.20305,-10.53971 6.48597,-1.32668 20.26866,8.6234 3.61151,1.99001 3.4641,5.52782 17.76272,35.96767 0.44223,4.64337 -1.47408,3.83261 -3.98003,3.4641 2.35853,1.17927 c 1.8426,0.22112 3.39039,0.81075 4.71707,1.6952 1.32668,0.88445 2.50595,2.13742 3.68521,3.75892 l -0.14741,5.74893 -1.99001,6.19115 -3.68521,3.98003 -6.70709,3.61151 -4.49596,0.81075 -4.93818,-0.66334 -2.80076,-2.43224 -0.88446,-5.233 -0.0737,-4.12744 -4.12743,3.24299 -2.80076,0.73704 h -2.65335 l -1.10556,-7.14931 -0.95816,-2.06372 -10.3923,6.85449 0.0737,-11.94008 -0.88444,-4.79077 2.80075,-2.57965 0.14741,-8.77081 -8.7708,-17.83643 -5.60152,-12.1612 -4.56966,-3.98002 -1.32668,-2.35854 -1.6952,-1.7689 -1.10556,-0.66334 c 0.22111,0.22111 0.14741,-0.29482 0.14741,-1.47408 z"
       style="stroke-width:0.737042" /><path
       id="shape5"
       class="st3"
       d="m 195.9389,142.9146 1.99001,0.66334 2.06372,4.42225 1.03186,6.85449 -1.54779,5.60152 -3.75892,8.10747 -4.93818,7.14931 -5.67522,5.74893 -6.04375,5.74894 -9.28674,6.78078 -6.9282,3.83263 -9.65526,4.79077 -6.63337,0.58964 -7.59154,-0.36852 -2.65335,-2.21113 -1.40038,-2.13743 1.8426,-0.44222 5.233,0.88445 4.71707,-0.44222 7.22302,-2.06372 6.70708,-3.68521 8.6971,-5.52781 11.79269,-10.02378 9.43414,-11.57157 4.71707,-7.96006 1.10556,-5.60152 -0.0737,-5.23301 c 0,0.0737 -0.0737,-1.25297 -0.36852,-3.90632 z"
       style="stroke-width:0.737042" /><path
       id="shape6"
       class="st3"
       d="m 173.23799,221.1148 -3.02188,-4.27485 -0.88445,-4.42225 -0.29481,-1.17927 -4.79078,-3.53781 -2.65335,-0.73704 -3.98003,1.17927 -2.21113,1.10556 1.40038,2.80076 1.03186,1.84261 -2.87446,2.94817 -5.82264,4.05374 -1.40038,0.73703 -1.47408,-3.02187 -2.06372,-1.47407 -1.17927,-0.22112 -1.03186,-2.72705 1.84261,-2.35855 1.03186,-0.88444 -4.56967,-3.6115 -2.21113,-4.49596 -1.32667,-0.51593 -5.3067,0.95814 -2.50595,0.58965 0.73704,2.50594 1.32667,1.03186 -6.85449,5.74893 -1.25297,2.21113 -2.28483,-2.50596 -1.6952,-0.51593 -3.98003,5.233 0.66334,2.43225 1.40038,3.16927 -0.14741,2.35854 0.51593,2.43225 7.07561,5.67523 h 1.40038 l 3.75892,-1.84262 3.68521,-0.81075 2.65336,-1.54778 0.66333,-3.09558 1.25297,-0.51593 4.71707,-1.40038 1.84261,1.62149 1.03186,1.7689 -1.32668,2.35854 2.21113,3.31668 1.99002,2.13743 2.06372,1.10557 7.96005,-3.02188 3.61151,0.95816 1.47409,-0.22111 6.41226,-6.63339 2.72707,-4.05373 c -0.0737,-0.0737 0.1474,-0.95815 0.66333,-2.65335 z"
       style="stroke-width:0.737042" /><path
       id="shape7"
       class="st3"
       d="m 220.335,283.54229 5.97004,-0.81075 3.61151,-1.54779 1.8426,-1.69519 1.32669,1.32667 1.99001,5.3067 v 4.49596 l -8.18117,6.19116 -5.82263,4.27485 -3.75893,0.29482 -1.62148,-0.58964 -1.54779,-1.91631 4.42225,-10.83452 c 0.0737,0 0.66333,-1.54779 1.7689,-4.49596 z"
       style="stroke-width:0.737042" /><path
       id="shape8"
       class="st3"
       d="m 182.59843,285.606 2.06371,2.21113 1.25298,6.41227 -0.44222,4.27485 -1.6215,1.91631 -2.72705,0.95816 -22.11128,-0.0737 c -1.6952,-2.13743 -2.06372,-3.68522 -1.17927,-4.64337 0.88445,-0.95816 2.28483,-1.99002 4.27485,-3.02188 l 5.97005,-4.42225 3.53779,1.76891 3.53781,0.44222 2.94817,-1.6952 c 0.0737,0 1.54779,-1.40038 4.49596,-4.12744 z"
       style="stroke-width:0.737042" /><path
       id="shape9"
       class="st2"
       d="m 148.10484,221.48331 9.65526,-7.223 -0.73704,-1.7689 -1.54779,-3.46411 -1.54779,-2.35854 -1.25298,-0.3685 -5.97004,3.46409 -3.68521,2.80076 -0.95815,1.54778 0.95815,2.72706 1.62149,0.58964 1.6215,1.62148 c 0.14741,-0.0737 0.73704,0.73705 1.8426,2.43224 z"
       style="stroke-width:0.737042" /><path
       id="shape10"
       class="st2"
       d="m 123.48763,214.77624 3.09557,-4.12745 3.98003,-3.09558 -1.99001,-3.83261 -0.95816,-2.87447 -1.03186,-0.58963 -3.98002,2.57965 -4.27485,3.6852 -1.99002,2.50595 0.51593,1.91632 2.65336,1.54779 1.62149,1.03185 c 0.0737,0 0.81075,0.44222 2.35854,1.25298 z"
       style="stroke-width:0.737042" /><path
       id="shape11"
       d="m 238.83476,207.47951 -3.39039,2.94817 -2.50594,1.25297 -4.05374,-0.36852 -0.22111,17.68902 -0.44222,2.80076 1.25297,4.27485 0.44222,2.06371 15.47789,1.54779 8.54969,-0.29481 6.70709,-2.43224 10.31859,-4.86448 10.2449,-7.29672 7.0019,-8.40228 5.38041,-8.476 2.57965,-9.65524 1.32667,-8.03376 0.58964,-8.47599 -1.32668,-7.51783 -3.09558,-10.83453 -3.68521,-7.37042 -6.9282,-8.5497 -4.27484,-4.27484 -6.7808,-4.49596 -8.25487,-4.20115 -8.25488,-2.65335 -4.71706,-0.88445 -2.57965,0.36852 -3.24299,2.28483 -1.84261,2.06372 -0.22111,0.81075 3.24299,0.29482 4.56966,2.50594 4.34855,3.61151 1.7689,1.62149 3.16928,-1.91631 1.91631,-0.51593 0.44223,2.65336 -0.88445,3.16928 -1.03186,1.25297 1.03186,0.88445 2.87446,1.17927 2.87447,0.36852 3.61151,-0.1474 1.03185,0.1474 0.81076,0.36853 2.87446,5.82264 0.81074,1.8426 -0.88445,1.8426 -2.06372,1.32668 -3.16927,1.47409 -3.4641,-0.0737 1.62148,2.65335 4.12744,2.57965 5.74894,0.73704 1.47408,0.29482 1.7689,4.27485 -0.29481,5.67522 -3.68522,2.35854 -3.24298,0.1474 -3.75892,-1.25297 0.22112,1.25297 2.50594,4.12744 2.80076,2.65336 3.31669,2.35853 -0.73704,1.91631 -3.4641,4.42225 -3.3167,0.22112 -0.88445,-0.0737 -2.43223,-2.43224 -1.32668,-6.55968 -2.13742,3.16929 -1.47409,6.04375 0.88445,1.69519 -0.22111,7.51783 -5.1593,7.14932 -7.22302,4.34854 -5.23299,0.81075 -4.71708,-1.10557 -2.65335,-3.75891 -0.66333,-3.98003 c -0.0737,-0.1474 0.0737,-1.47408 0.2211,-3.98003 z"
       fill-rule="evenodd"
       clip-rule="evenodd"
       fill="#728942"
       style="stroke-width:0.737042" /><path
       id="shape12"
       d="m 196.16001,144.16757 -2.72706,-2.06372 -4.64337,-0.58963 4.27485,-4.71707 -1.03186,-0.44223 -10.68711,0.73704 -3.83262,-0.36852 -1.32668,-1.6952 5.01189,-2.28483 4.34855,-4.05373 0.44223,-1.99001 -4.12744,1.25297 -12.52973,0.44222 -5.67522,-1.47408 -5.52782,-2.80076 -19.53163,-0.58964 -1.99001,-0.22111 -2.57965,2.87447 -11.27675,9.13932 -9.87636,5.233 -11.20305,3.75892 -5.601522,1.91631 -2.211128,5.67522 0.958155,6.41227 0.51593,3.4641 2.358536,2.87447 1.400381,1.62149 1.474088,3.16928 4.93818,3.3167 5.38041,2.50594 4.71707,1.32667 4.12744,3.02188 6.63338,6.11745 5.0856,2.50595 5.01189,2.72705 2.80075,3.24299 7.59154,3.90632 6.70709,-1.8426 8.25487,-3.90632 8.32858,-5.82265 9.13933,-7.29671 5.01188,-5.60153 8.10747,-10.17118 3.24299,-6.8545 0.73704,-5.45411 -0.22111,-4.56966 z"
       fill-rule="evenodd"
       clip-rule="evenodd"
       fill="#9ca76c"
       style="stroke-width:0.737042" /><path
       id="shape13"
       d="m 151.71635,133.84898 -8.91821,3.02187 -6.04375,3.90633 -0.0737,3.83262 2.43224,4.12743 3.83263,2.28483 h 4.42225 l 5.67523,-2.13742 2.28483,-2.57965 0.88445,-5.08559 -1.10557,-4.34855 -1.47408,-1.84261 c -0.0737,-0.0737 -0.66334,-0.44222 -1.91631,-1.17926 z"
       fill-rule="evenodd"
       clip-rule="evenodd"
       fill="#edf7ce"
       style="stroke-width:0.737042" /><path
       id="shape14"
       d="m 147.14669,198.19279 -5.233,-2.21113 -4.20115,-2.80076 -1.40037,2.43224 -0.58964,1.99001 0.58964,0.22112 3.5378,0.88445 4.49596,-0.0737 c 0,0.0737 0.95815,-0.0737 2.80076,-0.44223 z"
       fill-rule="evenodd"
       clip-rule="evenodd"
       fill="#dbcb88"
       style="stroke-width:0.737042" /><path
       class="st8"
       d="m 196.38112,147.70537 c 0.0737,-1.03186 0.29481,-4.71707 0.29481,-6.33856 0,-1.62149 -0.44222,-4.79078 -0.66333,-5.74893 -0.14741,-0.66334 -0.66334,-2.94817 -1.47408,-6.78079 -1.25298,-3.4641 -1.91631,-5.45412 -2.06372,-6.11745 -0.22112,-0.95816 -3.39039,-7.00191 -4.34855,-8.10747 -0.88446,-1.10556 -4.56966,-6.19116 -5.52782,-7.07561 -0.66334,-0.58963 -2.94817,-2.65335 -6.9282,-6.26486 -3.98003,-3.169281 -6.78079,-5.085591 -8.40229,-5.822634 -2.43223,-1.105563 -5.60152,-2.579648 -7.66524,-3.169281 -1.99001,-0.589635 -4.86448,-1.695199 -5.97004,-1.990016 -1.10556,-0.294816 -6.85449,-1.031859 -11.94009,-0.958155 -5.08559,0.07371 -13.34046,1.474085 -14.88825,1.916311 -1.10557,0.294817 -4.20114,1.40038 -9.28674,3.390395 -2.87446,1.474085 -4.93818,2.653353 -6.33856,3.611507 -2.06372,1.400381 -4.49596,3.685213 -6.33857,5.159293 -1.8426,1.47409 -3.61151,3.4641 -4.49596,4.42226 -0.884447,0.95815 -3.242982,4.34855 -4.422251,5.89634 -1.179267,1.54779 -3.537803,6.11745 -4.127437,7.44413 -0.589634,1.32667 -1.326677,3.31669 -1.990015,5.15929 -0.663338,1.91631 -1.326676,3.61151 -1.842606,5.97005 -0.51593,2.35853 -0.958155,4.34855 -1.031859,5.89634 -0.07371,1.03186 -0.07371,3.5378 -0.147408,7.44413 0.0737,3.75891 0.36852,6.70708 0.737042,8.99191 0.589634,3.39039 3.390395,11.35045 3.83262,12.60343 0.442226,1.25296 3.242987,6.19115 4.348551,7.96005 1.105564,1.84261 5.085593,6.55969 6.559673,7.81265 1.47409,1.17927 4.71708,4.49596 7.07561,6.11745 2.35854,1.54779 7.29672,4.64337 9.13933,5.52782 1.8426,0.88445 5.52782,2.35854 7.22301,2.57965 1.6952,0.29482 5.30671,1.25297 7.51784,1.32668 1.47408,0.0737 3.09558,0 4.79078,-0.0737 l -2.43225,-1.17926 -5.45411,-0.22112 -3.31669,-0.58964 c -2.94817,-1.32667 -4.86448,-2.06372 -5.74893,-2.21112 -1.32668,-0.22112 -5.89634,-3.16928 -6.9282,-3.5378 -0.73704,-0.22112 -2.50595,-1.54779 -5.45412,-3.90633 l -4.56966,-4.12744 -3.90632,-4.20114 -3.980034,-5.38041 c -2.43224,-4.49596 -3.758916,-7.14931 -4.127437,-8.03376 -0.51593,-1.25298 -2.874466,-7.88635 -2.94817,-9.06562 -0.221113,-1.10557 -1.031859,-7.66524 -1.031859,-9.43414 0,-1.6952 -0.147409,-5.60152 -0.07371,-6.63338 0.07371,-0.73705 0.810746,-4.56967 2.137423,-11.42416 1.91631,-4.34855 3.169282,-7.07561 3.685211,-8.25488 0.51593,-1.17926 1.990016,-3.83262 4.49596,-7.96005 l 5.822636,-6.55968 c 2.87447,-2.72706 5.01189,-4.49596 6.19116,-5.38041 1.84261,-1.252974 7.81265,-4.864482 14.29862,-6.707088 6.48598,-1.842606 13.8564,-2.94817 15.33048,-2.800762 1.47409,0.14741 8.25488,-0.221112 10.02378,0.368522 1.76891,0.589634 5.38041,1.326677 7.96006,2.137423 1.6952,0.51593 4.93819,1.842606 9.72896,4.053734 4.27485,2.579651 6.78079,4.348551 7.44413,5.233001 1.10556,1.40038 5.82264,5.1593 7.14931,6.78079 1.32668,1.62149 5.01189,6.63338 5.45411,7.73894 0.44223,1.10557 3.61151,5.74894 4.42226,8.6234 0.81075,2.87447 2.13742,7.22302 2.50594,10.76082 0.36853,3.4641 0.66334,5.97004 0.51593,7.14931 -0.1474,0.81075 -0.0737,1.6215 0.14741,2.43224 0.14741,0.44223 0.51593,1.03186 1.03186,1.54779 z"
       id="path124"
       style="stroke-width:0.737042" /><path
       id="shape15"
       class="st8"
       d="m 196.38112,144.31498 -2.06372,-3.02188 -3.02187,-0.29481 -0.58964,-0.51593 2.50595,-2.80076 1.03186,-2.35854 c -1.99002,0.51593 -3.83262,0.81075 -5.52782,0.81075 -2.57964,0.0737 -7.14931,0.14741 -8.84451,0.22111 -1.10556,0 -2.06372,-0.36852 -2.94817,-1.03186 1.99002,-0.36852 3.3904,-0.95815 4.27485,-1.6952 0.88445,-0.73704 2.65335,-2.21112 5.15929,-4.42225 l 0.95816,-2.72706 -0.22111,-0.95815 c -2.28484,1.03186 -4.12744,1.54779 -5.45412,1.54779 -2.06371,0.0737 -10.31859,0.14741 -12.38231,0.44222 -1.40038,0.22112 -2.50594,0.14741 -3.16928,-0.22111 -5.01189,-2.43224 -7.88636,-3.75892 -8.77081,-3.83262 -1.32667,-0.14741 -8.03376,-0.81075 -10.466,-0.58964 -2.43224,0.29482 -6.48597,-0.44222 -8.40228,-0.22111 -1.91631,0.22111 -2.28484,0.0737 -4.20114,2.28483 -1.84261,2.13743 -6.11746,5.89634 -8.25488,7.44413 -2.21113,1.54779 -11.20304,6.33857 -14.15121,7.66524 -2.94817,1.32668 -10.46601,3.31669 -12.456021,3.98003 -1.990015,0.66334 -3.685212,0.88445 -4.790776,3.3904 -1.105563,2.50594 -2.43224,6.48597 -1.252972,9.58154 1.179268,3.09558 1.695198,5.01189 3.169282,7.00191 0.958155,1.32668 1.768902,2.35853 2.284832,3.09558 l 0.589634,1.54779 2.800761,3.24298 7.59154,3.75892 6.19115,1.99001 6.04375,5.3067 5.01189,3.83263 5.60152,2.87446 3.09558,1.6215 c 0.51593,1.10557 1.10557,2.13742 1.8426,3.09558 0.73705,0.95815 3.46411,2.43224 8.18118,4.34855 l 2.94817,-0.58964 -7.66524,-3.5378 -3.98003,-3.98003 1.62149,-0.14741 3.83262,0.81075 10.68711,-1.32668 c 3.02188,-0.51593 5.0856,-1.32668 6.11746,-2.35854 1.03186,-1.03186 2.13742,-2.13742 3.31669,-3.24298 l -2.43224,0.0737 c -1.40038,1.25298 -2.57965,2.13743 -3.68521,2.80077 -1.10557,0.66333 -3.75892,1.47408 -8.10747,2.50594 l -8.8445,-0.22112 -5.97006,-0.88444 -4.86447,-2.28483 -4.56967,-3.3167 -3.5378,-3.83262 -4.27485,-3.61151 -6.11745,-1.17927 -5.233,-2.43223 -3.68521,-2.57965 -1.621494,-2.65335 3.095574,-0.58964 2.28484,-1.03186 2.65335,1.91631 1.17927,1.47409 1.10556,-1.99002 2.28483,-0.36852 5.45412,4.71707 1.17926,-4.42225 6.78079,-0.0737 8.10747,-1.25297 8.18117,-1.47408 4.79078,-1.54779 0.73704,0.58963 1.54779,3.24298 1.47409,1.6952 1.47408,-2.72706 1.91631,-2.35853 3.4641,-0.66334 1.69519,-1.03186 1.10557,2.43225 1.25297,2.21112 0.73704,-3.09558 1.47409,-1.8426 c 1.91631,-0.51593 3.24299,-1.32668 3.98002,-2.28483 0.73705,-0.95816 1.76891,-2.57965 3.02188,-4.79078 0,-1.62149 -0.73704,-2.50594 -2.06371,-2.57964 -1.32669,-0.14741 -2.57965,0 -3.68522,0.36852 l 0.29482,0.95815 1.6952,0.66334 0.95815,1.17926 -0.88445,2.50595 -2.57965,2.06372 -2.06372,1.10556 -1.03186,1.99002 -0.29481,1.10556 -1.40039,-3.02187 -3.68521,1.54778 -3.39039,0.58964 -2.13742,3.09558 -3.61151,-4.05374 c -0.88445,-0.22111 -1.91631,-0.14741 -3.09558,0.29482 -1.17927,0.44223 -2.57965,0.95816 -4.20114,1.54779 l -10.61341,1.91631 -7.96006,0.58964 -2.28483,-0.44224 -1.47409,2.57965 -0.22111,1.03186 -3.90633,-3.39039 -1.32667,-1.32667 -2.65336,1.7689 -0.88445,0.44222 -2.72705,-1.99001 -1.54779,-0.14742 -4.717074,1.84262 -3.169282,-4.49596 -1.474085,-8.5497 1.768902,-5.60151 c 2.137422,-1.32668 4.127439,-2.13743 5.896339,-2.43225 1.7689,-0.29481 5.45411,-1.32667 11.20305,-3.24298 l 11.64527,-6.48598 8.25487,-6.85449 3.31669,-3.5378 c 5.89634,0 9.65526,-0.0737 11.42416,-0.14741 1.7689,-0.0737 4.64336,0 8.6971,0.22111 2.43224,1.40038 4.12744,2.28483 5.08559,2.57965 0.95816,0.29482 3.31669,1.10556 7.14932,2.43224 3.61151,-0.44223 5.89633,-0.73704 7.0019,-0.88445 1.10556,-0.14741 3.39039,-0.14741 6.9282,-0.0737 l 1.9163,-0.58964 -2.65335,2.80077 -4.12743,2.80076 -2.87447,1.25297 -0.66334,0.36852 c 1.54779,1.47409 2.72706,2.28483 3.61151,2.43224 1.32668,0.22111 4.93819,0.22111 6.26486,0 0.88445,-0.14741 2.87446,-0.22111 5.97004,-0.0737 l 1.54779,-0.66334 -3.16928,3.61151 -1.7689,1.10556 2.35853,1.40038 3.3904,0.22112 c 0.36852,0.14741 1.54779,0.51593 3.68521,1.03186 z"
       style="stroke-width:0.737042" /><path
       id="shape16"
       class="st8"
       d="m 100.4182,152.64355 c -1.17927,0.66334 -1.400383,1.17927 -0.66334,1.6952 0.73704,0.51593 1.54779,0.88445 2.57965,1.17927 l 1.47408,1.5478 0.73705,0.2948 -0.29482,-2.21112 -1.54779,-1.6952 c -0.36852,-0.0737 -1.10556,-0.36851 -2.28483,-0.81075 z"
       style="stroke-width:0.737042" /><path
       id="shape17"
       class="st8"
       d="m 136.8281,142.32496 c 0.88444,-1.17926 1.99001,-2.06371 3.46409,-2.72705 2.13743,-1.03186 3.09558,-2.50595 6.04375,-3.09558 2.94817,-0.66334 2.43224,-0.88445 4.49596,-1.54779 1.32667,-0.44223 2.21113,-0.66334 2.72706,-0.58963 l -0.29482,-1.10557 c -0.36852,-0.58963 -1.17927,-0.66334 -2.35853,-0.29481 -1.76891,0.58963 -2.87448,1.03186 -4.64337,1.91631 -1.84261,0.81074 -3.83262,1.54779 -5.45412,2.50594 -1.03186,0.58963 -2.06372,1.25297 -3.09558,1.99002 l -1.69519,1.03185 c -0.22111,0.44223 0.0737,1.10557 0.81075,1.91631 z"
       style="stroke-width:0.737042" /><path
       id="shape18"
       class="st8"
       d="m 153.04303,133.25934 c 1.25297,0.95816 1.99002,2.06372 2.28483,3.24299 0.44222,1.7689 1.47408,3.4641 1.25297,5.3067 -0.14741,1.25298 -0.44223,2.87447 -0.95816,5.01189 l -2.35853,2.72706 c -1.32667,0.95816 -2.50594,1.62149 -3.68521,1.91631 -1.7689,0.44222 -2.35854,0.58963 -4.34855,0.36852 -1.99002,-0.22111 -3.4641,-0.36852 -4.86448,-1.40038 -0.95816,-0.66334 -1.99002,-1.7689 -3.09558,-3.31669 l -1.03186,-3.02187 v -3.24299 l 1.03186,-0.29482 c -0.22112,0.88445 -0.29481,1.7689 -0.14741,2.65336 0.0737,0.81074 0.58963,2.21112 1.40039,4.05373 l 3.16927,2.72706 c 1.76891,0.44222 3.09558,0.66333 4.05374,0.66333 1.40038,-0.0737 3.31669,-0.0737 5.01189,-0.95815 1.10556,-0.58963 2.35853,-1.6952 3.68521,-3.31669 0.81074,-0.88445 1.17926,-1.99002 1.03186,-3.24299 -0.14741,-1.91631 -0.14741,-2.50594 -0.81075,-4.20114 -0.44223,-1.10556 -0.95816,-2.35854 -1.54779,-3.75892 l -1.7689,-1.17926 c -0.0737,-0.14741 0.58964,-0.36853 1.6952,-0.73705 z"
       style="stroke-width:0.737042" /><path
       id="shape19"
       class="st8"
       d="m 147.2941,139.3768 -1.54779,1.40038 -0.29482,3.02187 0.22111,2.65335 0.29482,1.6952 1.40038,1.32668 1.10557,-1.25298 0.0737,-3.6115 -0.14742,-3.75892 c 0,-0.14741 -0.36851,-0.58963 -1.10556,-1.47408 z"
       style="stroke-width:0.737042" /><path
       id="shape20"
       class="st8"
       d="m 195.49667,145.42054 c 0.29482,2.28483 0.36852,3.83262 0.36852,4.79078 -0.0737,1.40038 -0.58963,5.01188 -1.03186,6.33856 -0.44222,1.40038 -3.83262,7.07561 -4.93818,8.8445 -1.10557,1.76891 -7.14932,9.13933 -9.13933,11.35046 -1.32667,1.47409 -4.93818,4.56967 -10.83452,9.43415 l -11.05564,7.0756 -10.31859,4.42226 -7.73895,0.81074 -3.83261,-0.81074 -1.03186,-0.36852 -0.29483,1.17926 3.98003,0.58964 6.19116,0.22111 12.1612,-3.90632 8.6971,-5.60151 13.41418,-10.53972 c 6.70708,-7.59153 10.39229,-11.79268 10.90822,-12.67713 0.73704,-1.32667 5.233,-8.03377 5.52782,-9.80266 0.1474,-1.10557 0.29482,-3.46411 0.29482,-7.00191 l -0.51593,-5.67522 c 0.0737,0.0737 -0.22111,0.51593 -0.81075,1.32667 z"
       style="stroke-width:0.737042" /><path
       id="shape21"
       class="st8"
       d="m 135.50142,197.67686 2.21112,3.5378 5.0856,1.10557 c 5.01189,0.0737 8.10747,-0.0737 9.28674,-0.44223 1.76889,-0.58963 14.88825,-6.70709 16.14122,-7.66524 0.88445,-0.58964 3.02187,-2.21113 6.33857,-4.86448 4.34855,-3.3167 7.0019,-5.45412 8.03376,-6.55968 1.54778,-1.54779 5.89634,-5.30672 7.14931,-7.14932 1.17927,-1.8426 3.83262,-5.3067 4.86448,-7.14932 0.66334,-1.25296 2.21113,-4.12744 4.49596,-8.7708 1.10556,-4.27483 1.40038,-7.0756 0.95816,-8.32857 -0.44223,-1.25298 -0.88446,-2.87447 -1.32669,-4.86448 l -1.40037,-2.65336 -1.40038,-0.73704 0.66334,-1.32668 2.50594,2.28484 2.28483,6.04374 c 0.36852,3.24299 0.36852,5.38041 -0.14741,6.48597 -0.66333,1.6952 -1.99002,6.70708 -3.24298,8.69711 -0.81076,1.32667 -3.09558,4.93818 -6.7808,10.83452 l -4.27484,4.20113 c -5.01189,4.86449 -7.96006,7.66525 -8.77081,8.4023 -1.25297,1.10556 -9.65525,6.63337 -10.90823,7.44412 -1.25296,0.81075 -3.98002,2.21112 -6.70708,3.68522 -2.72706,1.47408 -6.8545,2.94817 -8.40229,3.31669 -1.54779,0.36851 -3.83261,0.29481 -5.45411,0.58963 -1.10556,0.22111 -3.39039,0.1474 -6.85449,-0.29482 l -3.3167,-1.99002 -2.72705,-3.31668 c 0.73704,-0.0737 1.32667,-0.22112 1.6952,-0.51592 z"
       style="stroke-width:0.737042" /><path
       id="shape22"
       class="st8"
       d="m 138.6707,202.39392 1.10556,2.72705 2.80076,3.3904 2.72706,1.47408 0.44223,0.58964 -1.6215,1.10556 -2.87446,-2.43224 -3.24298,-4.20114 -0.81076,-3.68521 c 0.14742,0.36852 0.58964,0.66333 1.47409,1.03186 z"
       style="stroke-width:0.737042" /><path
       id="shape23"
       class="st8"
       d="m 137.41773,201.87799 c -2.13742,0.0737 -3.75892,0.22111 -4.86449,0.44223 -1.10555,0.2211 -2.06372,0.44222 -2.94816,0.66333 l -0.81075,1.03186 0.58964,1.17927 1.40038,-1.03186 c 1.40038,-0.36852 2.57965,-0.58964 3.5378,-0.73705 0.95816,-0.1474 2.06372,-0.1474 3.31669,-0.0737 0.51593,0 0.44222,-0.44223 -0.22111,-1.47408 z"
       style="stroke-width:0.737042" /><path
       id="shape24"
       class="st8"
       d="m 143.09295,224.6526 c -0.88445,0.29482 -1.8426,0.73704 -2.94817,1.25297 -0.81074,0.44223 -1.69519,0.66334 -2.65334,0.73704 -0.95816,0.0737 -1.47409,-0.0737 -1.47409,-0.36851 l 0.88445,-1.17927 h 1.99001 l 2.06372,-0.66334 c 0.51593,-0.22112 1.17927,-0.14741 2.13742,0.22111 z"
       style="stroke-width:0.737042" /><path
       id="shape25"
       class="st8"
       d="m 129.8999,209.0273 2.50594,-1.84261 c 0.44223,-1.03186 0.0737,-1.25297 -0.95815,-0.81074 -1.54779,0.66333 -2.35854,0.81074 -3.68522,2.50595 -0.88445,1.10555 -1.7689,2.06371 -2.72705,2.80075 l -1.76891,1.6952 c -0.29481,0.73704 -0.44222,1.54779 -0.36852,2.50596 0.0737,0.95814 0.29482,1.99001 0.73704,3.16927 l 1.10557,2.06372 1.6952,-1.54779 2.13742,-2.13741 c 3.61151,-0.29482 5.82264,-0.58964 6.70709,-0.73705 0.88444,-0.22113 1.54779,0 1.99001,0.58964 l 0.66334,6.04375 -1.99001,1.69518 -0.58964,2.80076 -1.40038,1.99002 -3.68521,1.25297 -2.13743,0.58963 -2.65335,1.91631 -7.51783,-5.233 -0.81075,-2.94817 1.03186,-1.54777 -2.87447,-5.0856 1.91632,-2.94818 2.06371,-2.43224 c -0.51593,-1.47407 -1.03185,-1.7689 -1.54778,-0.88444 -0.51593,0.88444 -1.6952,2.57964 -3.4641,5.08558 -0.73705,0.22113 -0.81075,0.88445 -0.29482,2.06372 0.81075,1.6952 1.91631,1.91631 1.91631,3.24299 0,1.32667 -0.36852,2.35853 0.0737,4.12743 0.29481,1.17927 1.69519,2.72706 4.34855,4.71708 l 4.79077,3.02188 c 1.17927,-0.66335 2.28483,-1.17928 3.31669,-1.54779 1.54779,-0.58963 2.43224,-0.14741 4.27485,-0.81075 1.25297,-0.44222 2.57965,-1.32668 4.12744,-2.65335 -0.36852,-1.25297 -0.36852,-2.28483 -0.0737,-3.16928 0.29482,-0.88445 0.81074,-1.62149 1.6952,-2.13742 0.81074,-0.81075 1.10556,-1.6952 0.81074,-2.65335 -0.29481,-0.95816 -0.58963,-2.87447 -1.03186,-5.67523 0.29482,-0.95816 -0.58963,-1.17927 -2.65335,-0.73704 -2.13742,0.44222 -4.27485,0.88445 -6.63338,1.32667 l -3.16928,1.99002 -1.54779,-2.35854 c 0.0737,-1.54779 0.58963,-2.65335 1.47408,-3.31669 1.40038,-1.10556 1.6215,-1.25297 4.20115,-3.98004 z"
       style="stroke-width:0.737042" /><path
       id="shape26"
       class="st8"
       d="m 131.37398,207.11099 -1.8426,-2.57964 -0.58964,-1.91632 -1.17927,-2.13743 c -0.95815,-0.95814 -2.06372,-0.95814 -3.39039,0.0737 -1.32668,1.03185 -2.72706,2.21112 -4.20115,3.53781 -2.13742,1.6952 -3.46409,2.94817 -3.90632,3.8326 -0.66334,1.25299 -0.88445,1.69521 -0.36852,2.65336 0.36852,0.66334 1.25297,1.17927 2.72706,1.6215 l 1.62149,1.62149 2.50594,1.7689 0.73705,0.95815 v -2.13741 l -2.72706,-1.99002 -2.35854,-1.40038 -1.40038,-1.40038 c 0.29482,-1.32668 1.03186,-2.43224 2.13743,-3.31668 1.69519,-1.32669 4.27484,-3.61152 5.60152,-4.34856 1.32667,-0.73704 2.06372,-2.13741 2.50594,-0.58962 0.29482,1.03186 0.66334,2.28482 1.17927,3.90632 l 1.40038,2.28483 c 0.29482,0.29481 0.81075,0.14741 1.54779,-0.44223 z"
       style="stroke-width:0.737042" /><path
       id="shape27"
       class="st8"
       d="m 146.77817,221.26221 c 1.40038,-0.73705 2.94817,-1.47409 4.20114,-2.43224 0.88445,-0.66334 2.57965,-1.84262 5.0856,-3.53781 l 1.76889,-1.99001 1.91631,-1.6215 0.58964,1.54779 c -0.81075,0.14741 -1.6215,0.66334 -2.50595,1.6215 -0.88445,0.95815 -2.43224,2.21112 -4.49596,3.6852 -1.54778,1.10557 -2.72706,1.91631 -3.68521,2.43224 -0.88445,0.51593 -1.40038,0.95817 -1.47408,1.25298 -0.29482,0.0737 -0.73704,-0.22112 -1.40038,-0.95815 z"
       style="stroke-width:0.737042" /><path
       id="shape28"
       class="st8"
       d="m 158.20232,213.52326 -1.47408,-1.99001 -0.95816,-2.65334 -0.73703,-1.99002 -1.76891,-1.03186 c -0.66334,0.22111 -1.6215,0.66333 -3.02187,1.25297 -2.06372,0.88445 -2.87447,1.62149 -4.20115,2.72706 -0.88445,0.73704 -1.54778,1.25297 -2.06371,1.40038 l -2.06372,2.13742 c -0.66334,0.36852 -0.81075,0.95816 -0.44223,1.7689 0.36852,0.81074 1.03186,1.6215 1.84261,2.28484 1.10556,-0.0737 1.8426,0.36852 2.21112,1.32667 0.36853,0.95816 0.81075,1.6215 1.32668,2.06372 l 0.88445,0.81074 0.73705,-0.73703 -1.54779,-1.99002 -2.28484,-2.13742 c -0.81074,0.14741 -1.40038,-0.22112 -1.62149,-1.17927 -0.29482,-0.88445 -0.22111,-1.84261 0.22111,-2.72706 l 5.74894,-3.75892 c 1.7689,-1.8426 3.09558,-2.50594 3.98003,-2.13742 0.88444,0.44223 1.47408,1.10556 1.99001,2.21113 l 1.17926,2.80076 c 0.81075,1.62149 1.32668,2.35854 1.54779,2.28483 0.22112,-0.14741 0.44223,-0.36852 0.51593,-0.73705 z"
       style="stroke-width:0.737042" /><path
       id="shape29"
       class="st8"
       d="m 169.47908,211.16472 c -3.61151,-3.02187 -5.74894,-4.56966 -6.41227,-4.56966 -1.03186,0 -3.3167,0.0737 -4.34856,0.58963 l -3.24298,1.6215 0.36852,1.54779 c 0.51593,-0.51593 1.10556,-0.95815 1.8426,-1.32668 1.03186,-0.51593 1.99002,-1.25297 3.3904,-1.17926 0.88445,0.0737 1.91631,0.1474 3.02187,0.29481 l 2.43225,1.7689 2.50594,2.50595 c -0.0737,-0.0737 0.1474,-0.44222 0.44223,-1.25298 z"
       style="stroke-width:0.737042" /><path
       id="shape30"
       class="st8"
       d="m 143.83,217.35588 c -0.66334,0.81076 -1.10557,1.62149 -1.40038,2.43224 -0.44223,1.25298 -0.95816,1.91632 -0.95816,2.94817 0,0.66335 0.22111,1.32668 0.58963,2.06372 l 2.43225,2.43224 c -1.32668,1.6952 -1.76891,2.94818 -1.32668,3.61152 0.36852,0.73704 1.47408,1.69519 3.16928,2.87446 l 1.03186,1.91631 c 2.13743,1.03186 3.61151,1.32668 4.49596,0.88445 0.88445,-0.44223 2.65336,-1.10556 5.45411,-1.99002 l 5.38041,1.03186 c 4.49596,-4.34854 6.9282,-6.85449 7.29673,-7.44412 0.51593,-0.95816 3.16927,-4.27484 3.31668,-5.3067 0.0737,-0.66336 0.0737,-1.47409 0,-2.43225 l -1.03186,0.36852 c -0.14741,1.32667 -0.36852,2.28482 -0.73703,2.87446 -0.36853,0.66334 -1.69521,2.65335 -4.05374,5.97004 l -4.64337,4.27485 c -2.06372,-0.58963 -3.5378,-0.81075 -4.42225,-0.81075 -1.25298,0.0737 -2.57965,0.58964 -4.27485,1.32668 -1.69519,0.73704 -3.24298,1.62149 -4.27484,1.17926 -0.66334,-0.29481 -1.54779,-0.88444 -2.57965,-1.76889 l -2.65336,-3.61151 1.76891,-3.09558 c -2.13743,-1.7689 -3.24299,-3.02188 -3.3167,-3.68521 -0.0737,-0.73705 0.36853,-2.28484 1.32668,-4.64337 l 0.66334,-1.03186 c 0.14741,0.0737 -0.29482,-0.14741 -1.25297,-0.36852 z"
       style="stroke-width:0.737042" /><path
       id="shape31"
       class="st8"
       d="m 144.64074,226.93743 -15.03566,12.52973 c -0.51593,0.36851 -1.03186,0.51593 -1.54779,0.58962 -0.51593,0 -2.50595,-0.22111 -6.11745,-0.73704 -1.03186,-1.03185 -1.6952,-1.9163 -1.91631,-2.80076 -0.36852,-1.32667 -0.29482,-1.69519 0.36852,-2.50595 0.44222,-0.51593 0.95815,-1.17926 1.62149,-1.99001 l 1.25297,0.58964 -1.7689,1.6952 c -0.51593,0.73703 -0.66334,1.25296 -0.51593,1.54779 0.14741,0.29481 0.58964,1.10556 1.40038,2.35853 3.31669,0.51593 5.1593,0.66334 5.67523,0.44222 0.44222,-0.2211 1.7689,-1.17926 3.98002,-2.72705 l 11.64528,-10.09748 c 0.14741,-0.14741 0.44222,0.29481 0.95815,1.10556 z"
       style="stroke-width:0.737042" /><path
       id="shape32"
       class="st8"
       d="m 178.83951,199.74057 1.32668,-0.81075 -0.22111,-3.98002 3.02187,-6.33857 c 5.82263,-6.33856 9.28673,-9.72896 10.3923,-10.31859 1.6952,-0.81076 9.43414,-2.21113 11.79268,-1.7689 2.35853,0.44221 3.98003,1.8426 4.79077,3.61151 0.81075,1.76889 5.67523,12.60342 5.82263,14.29862 0.14742,1.10556 0.29483,6.48597 0.44223,16.14123 -1.25297,1.99001 -3.68521,4.42225 -7.0756,7.29672 -3.4641,2.87447 -7.0019,5.233 -10.68712,7.0019 -5.45411,0.73704 -8.91821,1.03186 -10.39229,0.81075 -1.47409,-0.22112 -5.23301,-1.03186 -11.35046,-2.43224 -2.50595,-1.99001 -4.05374,-3.4641 -4.71707,-4.49596 -0.66334,-1.03186 -1.40038,-3.24299 -2.13743,-6.63338 0.88445,-2.43224 1.99002,-4.20115 3.16929,-5.38041 1.8426,-1.76891 5.82263,-6.63338 11.71897,-8.10747 5.89635,-1.47408 9.87637,-1.6952 11.49786,-1.40038 1.03186,0.22111 3.09558,0.36851 6.04375,0.44223 -0.22111,-0.95816 -1.40038,-1.54779 -3.53781,-1.6952 -3.24298,-0.29482 -5.45411,-0.51593 -7.29671,0.0737 -1.25298,0.44223 -3.83262,1.03186 -7.88635,1.84261 l -3.3167,1.03186 -1.40038,0.81075 -7.0019,7.0019 -2.94817,4.71707 v 1.03186 l 0.36852,3.16928 3.39039,5.97005 4.05374,2.72705 c 6.70709,1.62148 10.76082,2.50595 12.08749,2.57965 1.32669,0.0737 5.30671,-0.29482 11.86639,-1.03186 10.17118,-6.7808 15.62529,-11.20305 16.36234,-13.26677 1.10557,-3.16929 1.25297,-10.09748 0.95816,-12.1612 -0.29482,-2.06372 -0.14742,-6.33856 -1.76891,-9.36044 -1.54778,-3.02187 -3.16928,-8.32857 -4.64336,-10.90822 -1.47409,-2.57965 -2.57965,-4.86449 -4.34856,-5.01189 -1.8426,-0.14741 -8.32857,-0.95816 -12.67712,1.17926 -4.27485,2.13742 -5.97004,4.56966 -7.88636,6.8545 -1.91631,2.28483 -4.05373,3.75891 -5.38041,6.48597 -1.32667,2.80076 -2.06372,3.3904 -2.43224,5.3067 -0.22111,1.25298 -0.36852,2.06372 -0.29481,2.43224 -0.22112,0.44223 0,1.25298 0.29481,2.28484 z"
       style="stroke-width:0.737042" /><path
       id="shape33"
       class="st8"
       d="m 199.55041,145.64166 3.39039,2.28483 c 2.57965,3.6115 4.05373,5.82263 4.27484,6.70708 0.44224,1.25297 4.12744,8.69709 4.64337,10.24488 0.36852,1.03186 2.80077,6.33858 7.37042,15.92013 l 0.29483,9.58154 -2.57965,2.80077 -1.17928,-0.81074 2.65336,-2.80077 c 0.0737,-4.42225 -0.0737,-7.0019 -0.36852,-7.88635 -0.44222,-1.25298 -5.1593,-11.57157 -5.82264,-12.82455 -0.44222,-0.88445 -3.16928,-6.48597 -8.32858,-16.87826 l -3.61151,-3.5378 c -0.29481,-0.14741 -0.58963,-1.10557 -0.73703,-2.80076 z"
       style="stroke-width:0.737042" /><path
       id="shape34"
       class="st8"
       d="m 188.86329,226.56891 -35.37803,19.38422 -1.40038,-0.51593 -3.75892,-5.60153 -0.0737,-2.50594 1.47408,-0.95815 1.6215,0.22111 -1.76891,1.32669 c -0.1474,0.73703 0.14741,1.62148 0.73705,2.65334 0.58963,1.03186 1.47408,2.21113 2.65335,3.53781 l 33.68284,-17.91013 c -0.14741,-0.0737 0.66334,0.0737 2.21113,0.36852 z"
       style="stroke-width:0.737042" /><path
       id="shape35"
       class="st8"
       d="m 218.63981,180.94598 6.04375,-5.08559 c 1.32667,-1.03185 2.28482,-1.10555 2.72705,-0.22111 0.44222,0.88446 2.35853,4.27485 5.74893,10.09749 l 0.66333,1.8426 0.66335,10.53971 -2.43224,1.99002 -15.18308,9.72896 0.22112,-1.54779 15.25677,-10.17119 0.0737,-11.05564 -5.52782,-9.80266 c -0.66334,-0.73704 -1.40038,-0.81076 -2.06372,-0.22111 -0.66333,0.51592 -2.72705,2.43224 -6.04375,5.74893 0.0737,0.0737 0,-0.58963 -0.1474,-1.84262 z"
       style="stroke-width:0.737042" /><path
       id="shape36"
       class="st8"
       d="m 195.86519,139.89272 10.3923,-9.58155 c 2.13742,-1.25297 3.98003,-1.91631 5.60152,-1.91631 1.6215,0 3.09558,0.22111 4.42225,0.66334 l 16.87828,7.44413 c 2.35854,1.10556 3.90633,2.06372 4.79077,2.87447 0.81075,0.81074 1.84261,2.28483 3.02188,4.34855 l 18.42606,37.36805 c 0.66334,1.91631 0.81075,3.39038 0.51593,4.49595 -0.29482,1.10557 -0.81075,2.43225 -1.54779,3.98003 l -22.7009,21.52164 c -0.73705,0.88445 -1.84262,1.25297 -3.3167,1.17927 -1.47408,-0.0737 -2.65335,-0.14741 -3.68521,-0.29481 l 0.44223,-1.54779 c 1.32667,0.51593 2.50594,0.51593 3.6852,0.14741 1.17928,-0.36852 2.21114,-0.81075 3.09558,-1.40038 l 21.52164,-20.63719 c 0.81075,-1.32668 1.17927,-2.57965 1.17927,-3.83262 0,-1.25298 -0.14741,-2.35853 -0.44222,-3.39039 l -19.67904,-38.91585 c -0.58963,-1.47409 -1.47408,-2.43224 -2.50594,-2.80076 -1.03186,-0.36852 -2.06372,-0.95816 -3.09558,-1.84261 l -18.42606,-7.66524 c -1.03186,-0.0737 -2.06372,-0.0737 -3.16928,0 -1.10556,0.0737 -2.50595,0.51593 -4.20114,1.17927 l -11.12934,10.31859 c -0.0737,0 -0.0737,-0.58963 -0.0737,-1.6952 z"
       style="stroke-width:0.737042" /><path
       id="shape37"
       class="st8"
       d="m 210.09011,163.18326 20.34237,-19.82644 c 0.58964,-0.88445 0.88445,-1.7689 0.95816,-2.65335 0.0737,-0.88445 0.0737,-1.62149 0.14741,-2.13742 0.81074,0.0737 1.25296,0.66334 1.17927,1.7689 0,1.62149 -0.22112,2.80076 -0.88446,3.4641 -0.73704,0.66334 -3.09558,2.72706 -3.75891,3.39039 -0.44223,0.44223 -6.11746,6.04375 -17.09939,16.80457 -0.14741,0.0737 -0.44222,-0.22111 -0.88445,-0.81075 z"
       style="stroke-width:0.737042" /><path
       id="shape38"
       class="st8"
       d="m 211.41679,165.76291 21.30053,-19.2368 c 1.17926,-0.81075 2.28483,-1.17927 3.31669,-1.10557 1.03186,0.0737 1.76889,0.14741 2.21113,0.14741 l 0.29481,0.58963 c -0.14741,0.0737 -0.58964,0.14741 -1.40038,0.22112 -1.17927,0.0737 -1.84261,-0.14741 -2.94817,0.58963 -1.10556,0.73704 -2.57965,2.06372 -3.75892,2.87447 -0.73704,0.51593 -5.38041,4.71706 -13.9301,12.60342 l -4.64337,4.34856 c 0,0 -0.22111,-0.36854 -0.44222,-1.03187 z"
       style="stroke-width:0.737042" /><path
       id="shape42"
       class="st8"
       d="m 226.45245,203.05725 1.84261,-1.25296 c 1.03186,4.42225 1.54779,7.44412 1.54779,9.28673 -0.0737,2.72706 -0.36852,17.68902 -0.58964,18.86829 -0.1474,0.81075 -0.51593,1.91632 -1.10556,3.31669 -8.40229,3.5378 -14.29862,5.52782 -17.54161,6.11745 -4.86448,0.88445 -14.88826,1.62149 -16.65716,2.21112 -1.17927,0.36853 -3.90632,0.29482 -8.32857,-0.1474 -7.44414,-1.84261 -11.57157,-2.94818 -12.23491,-3.16928 -0.73705,-0.29483 -1.6215,-1.03186 -2.72706,-2.21114 0.95815,-1.10555 1.62149,-1.47408 1.99001,-1.17926 0.51593,0.51593 2.13743,2.35854 5.1593,3.24298 2.94817,0.88445 10.17119,2.35854 13.41417,2.35854 3.24299,0 13.63529,-1.25297 15.84642,-1.84261 2.21112,-0.66334 13.26676,-3.02187 14.59344,-3.98002 1.40038,-0.95816 5.38041,-1.54779 5.74893,-2.87447 0.36852,-1.40038 1.17927,-6.9282 0.95815,-8.6234 -0.1474,-1.6952 0.58964,-8.03376 0.14741,-9.06562 -0.44222,-1.03186 -0.22111,-6.11745 -0.66334,-7.73894 -0.51593,-1.62149 -0.51593,-1.62149 -1.40038,-3.3167 z"
       style="stroke-width:0.737042" /><path
       id="shape43"
       class="st8"
       d="m 228.58988,230.32783 c 0.66333,1.47408 1.17926,3.31669 1.54779,5.45411 0.58963,3.31669 1.40038,9.36044 1.91631,12.01379 0.51593,2.65336 1.17927,7.29672 1.25296,8.91821 0.0737,1.6215 0.36853,16.73087 0.36853,18.35237 0,1.10555 -0.29482,2.65334 -0.73704,4.64336 -2.94817,2.21113 -4.93819,3.39039 -6.04375,3.5378 -1.10557,0.14741 -3.16929,0.36852 -6.04375,0.66334 -2.65335,-1.91631 -4.86448,-3.5378 -6.63339,-4.79078 -2.57964,-1.8426 -6.78078,-6.70708 -8.25487,-7.59153 -1.47408,-0.95816 -8.25488,-5.74893 -9.50784,-6.70709 -0.88445,-0.66334 -3.02188,-3.24299 -6.48598,-7.88635 -0.88444,1.91631 -1.8426,3.6115 -2.80076,5.15929 -0.95816,1.47409 -3.02188,3.90633 -6.19115,7.22302 l -1.32668,0.88445 c 2.13742,4.34856 3.31669,7.29672 3.5378,8.91821 0.14741,1.6215 0.22112,3.83263 0.14741,6.70709 l -5.1593,5.45411 -4.56965,0.95816 c -3.46411,-1.25297 -6.63339,-2.87447 -9.36045,-4.86448 -4.12744,-3.02187 -8.25487,-6.55968 -10.02378,-9.13933 -1.17926,-1.69519 -3.02187,-5.1593 -5.52781,-10.31859 0.88445,-5.97004 1.9163,-9.95007 3.02187,-12.1612 1.6952,-3.24298 5.89634,-10.3923 6.48597,-11.94009 0.36853,-1.03186 1.10557,-2.06372 2.13743,-3.16928 l 1.03186,0.14741 c -6.04375,9.58155 -9.28673,15.84641 -9.87637,18.79458 -0.81075,4.42226 -1.99001,6.33857 -1.54779,8.32858 0.44223,1.99002 2.28483,5.82263 3.31669,7.29672 1.03186,1.47408 10.02378,10.90822 13.48788,12.52972 3.46409,1.62149 7.14931,3.3167 8.54969,2.57965 0.95815,-0.51593 2.80076,-1.7689 5.60152,-3.75891 0.81074,-2.43225 0.95816,-4.56967 0.51593,-6.41228 -0.44222,-1.91631 -1.17927,-4.56966 -2.21113,-8.03376 l -0.95815,-1.54779 c -4.71707,1.99002 -7.51784,2.72706 -8.40229,2.35854 -1.25296,-0.66334 -2.21113,-0.22112 1.03186,-1.25298 2.13743,-0.66333 5.01189,-1.62148 8.5497,-2.94817 4.42225,-4.05373 6.85449,-6.70708 7.14931,-8.03376 0.29481,-1.32667 1.03186,-3.16927 2.13742,-5.60152 l 1.10556,-1.17926 c 1.91631,3.31668 3.61151,5.67522 5.01189,7.1493 2.13743,2.13743 12.97195,9.72896 14.66715,10.98194 1.69519,1.25297 4.71706,6.48597 7.29671,7.51783 2.57965,1.03186 3.68522,3.31669 5.97005,2.94817 2.28483,-0.36852 7.07561,-1.17927 7.88636,-2.72706 0.81074,-1.54779 1.8426,-3.4641 1.69519,-5.97004 -0.1474,-2.50595 0.0737,-15.99382 -0.36852,-17.98384 -0.44222,-1.99001 -1.25297,-10.466 -2.13742,-13.19306 -0.58964,-1.8426 -1.25297,-5.3067 -1.99002,-10.31859 -0.0737,-0.36852 0.14741,-1.03186 0.73705,-1.99001 z"
       style="stroke-width:0.737042" /><path
       id="shape44"
       class="st8"
       d="m 252.91227,194.06534 1.47409,-1.54778 4.12744,1.47407 4.71707,2.94817 c 1.54779,1.40039 2.35854,2.80077 2.28483,4.05373 -0.0737,1.99002 -0.29481,6.48599 -1.8426,9.28675 -1.54779,2.80076 -3.3167,5.233 -5.38041,6.41227 -2.06372,1.17927 -5.60152,3.4641 -7.37043,3.98003 -1.7689,0.44222 -6.33856,0.51593 -8.25487,-0.58964 -1.99001,-1.10556 -2.72706,-1.17926 -3.3904,-2.57965 -0.58963,-1.40037 -2.06371,-8.32857 -1.17926,-9.72895 0.58963,-0.95815 1.17926,-1.32668 1.76889,-1.17927 -0.51593,3.83262 -0.51593,6.55968 0,8.25488 0.81076,2.50594 2.65336,3.98003 4.05374,4.27484 1.40038,0.29482 5.89633,0.36852 8.32858,-0.88445 2.43224,-1.25298 8.32858,-4.34855 9.21303,-6.70709 0.88445,-2.35853 2.21113,-4.86448 2.28483,-7.51783 0.0737,-2.65335 0.66334,-3.90632 -0.95815,-5.15929 -1.6215,-1.25298 -4.05374,-3.3167 -5.82264,-3.68522 -1.69519,-0.36852 -1.69519,-0.36852 -4.05374,-1.10557 z"
       style="stroke-width:0.737042" /><path
       id="shape45"
       class="st8"
       d="m 167.78387,288.84899 -10.24488,7.00191 c -0.51593,0.51593 -0.73705,1.10556 -0.73705,1.6952 0,0.58962 0.29482,1.69519 0.95816,3.31669 l 1.32667,0.81075 24.10129,-0.22112 c 1.47408,-0.73705 2.28484,-1.40038 2.57965,-1.99001 0.36853,-0.88445 1.25298,-4.05374 1.17927,-5.45412 -0.0737,-1.32668 -2.35853,-8.6971 -3.39039,-9.43414 -0.73705,-0.51593 -1.17927,0.0737 -1.47409,1.7689 1.25297,0.36852 1.99002,1.03186 2.21112,2.06372 0.36852,1.54779 1.25298,4.79077 0.95816,6.26486 -0.29481,1.47408 0,3.61151 -0.95816,4.20114 -0.95815,0.58964 -1.10556,1.6952 -2.06372,1.47409 -0.66333,-0.14742 -7.96005,-0.0737 -21.96386,0.29481 -1.99001,-1.32667 -2.65335,-2.43224 -1.91631,-3.24298 0.66334,-0.88444 2.28483,-2.06372 4.71708,-3.53781 l 6.11744,-4.20114 c -0.1474,-0.29482 -0.51593,-0.58963 -1.40038,-0.81075 z"
       style="stroke-width:0.737042" /><path
       id="shape46"
       class="st8"
       d="m 219.74536,282.51043 c -0.36852,1.17926 -1.76889,5.74893 -2.43224,7.73894 -0.66333,1.99002 -2.57965,5.52782 -2.94816,6.7808 -0.22111,0.88445 -0.51593,1.54779 -0.81075,2.06372 l 1.54779,2.21112 0.66333,0.22112 5.01189,-0.0737 15.33049,-10.2449 c 0.0737,-2.65334 -0.14741,-4.93817 -0.73705,-6.70708 -0.88444,-2.65335 -1.54779,-5.15929 -2.43223,-5.08558 -0.58964,0.0737 -0.88445,0.2948 -0.88445,0.73703 1.69519,3.243 2.57965,5.15931 2.57965,5.89634 0.0737,0.66335 -0.0737,2.13743 -0.44223,4.42226 l -13.11935,9.80266 -3.61151,0.51594 c -1.6215,-0.51594 -2.43224,-1.10557 -2.35854,-1.76891 0.1474,-1.03186 3.24298,-7.66523 3.75891,-9.72895 0.36852,-1.40039 0.95816,-3.243 1.69521,-5.67523 0,-0.66334 -0.29483,-0.95817 -0.81076,-1.10557 z"
       style="stroke-width:0.737042" /><path
       id="shape47"
       class="st8"
       d="m 229.69544,238.50899 c 5.15929,1.03186 9.06562,1.6952 11.71897,1.84261 3.98003,0.22112 10.3186,0.58964 19.82645,-3.16927 9.50785,-3.75892 18.86828,-9.95008 21.81645,-13.34046 2.94817,-3.39042 7.14931,-7.07562 9.87637,-13.26678 2.72706,-6.19115 5.08559,-12.52972 5.30671,-18.27865 0.29481,-5.82264 0.95815,-5.08559 0,-13.34047 -0.95816,-8.25487 -4.49596,-17.68902 -6.33857,-20.71088 -1.84261,-3.02189 -5.60152,-9.87638 -13.56158,-15.92012 -7.96006,-5.97005 -14.22492,-8.91822 -20.26867,-10.46601 -6.04374,-1.54779 -7.22302,-1.62149 -8.62339,-1.17927 -1.40038,0.36853 -2.28483,0.29482 -3.98003,1.99002 -1.17927,1.17927 -2.21112,2.13742 -3.09558,3.02187 l -0.36852,1.10557 5.52782,0.95815 8.32857,6.48598 0.51593,1.7689 c 1.6215,-1.54779 2.87447,-2.50595 3.68522,-2.87447 0.88445,-0.36852 1.32667,-0.51593 1.32667,-0.44222 0.36853,1.8426 0.29482,3.24298 -0.29481,4.12743 -0.58964,0.88445 -1.10557,1.84261 -1.54779,2.80077 l -0.22112,0.66333 c 1.54779,0 2.80077,0.36852 3.75892,0.95816 0.95816,0.58963 3.09558,0.95815 6.55968,1.10556 l 2.35853,-0.36852 3.61151,7.14931 c 0.22112,1.25297 -0.44222,2.28483 -2.06372,2.94817 -2.43223,1.03186 -3.98002,1.99001 -5.52781,1.76889 -1.03186,-0.1474 -1.7689,-0.2211 -2.28483,-0.36851 0.73704,1.99001 1.69519,3.46409 2.87446,4.34855 1.7689,1.32668 4.20115,3.02188 7.37042,2.94818 2.13743,-0.0737 3.3167,0.0737 3.68522,0.36851 1.32667,2.87446 1.91631,5.01189 1.62149,6.41227 -0.29482,1.40039 -0.66334,2.57966 -1.10556,3.46411 -3.02188,1.40037 -5.38041,1.8426 -7.00191,1.25297 -1.62149,-0.58963 -2.80076,-1.17927 -3.46409,-1.84262 -0.36853,0.88446 0.0737,1.99002 1.17926,3.3904 1.6952,2.06371 1.62149,4.42226 3.90633,5.67522 1.54778,0.81076 2.87446,1.47409 4.05373,2.06372 0.14741,1.10557 -0.29482,2.21113 -1.17927,3.3167 -0.88445,1.10556 -1.91631,2.21112 -3.09558,3.31669 l -3.16928,-0.0737 c -1.62149,-1.03186 -2.57965,-2.57965 -3.02188,-4.49596 -0.44222,-1.91631 -0.58962,-3.75891 -0.58962,-5.38041 -0.88446,0.44223 -1.54779,1.25297 -2.13743,2.43224 -0.58963,1.17927 -1.17927,2.65336 -1.7689,4.42225 l -0.58963,2.72707 c 0.58963,1.62148 0.88445,1.99001 1.03185,1.10555 0.14741,-1.32667 0.58964,-4.27484 1.40039,-5.97004 0.51593,-1.10556 1.10555,-1.99002 1.62148,-2.43224 l 1.03186,6.04375 2.87448,2.57965 h 3.90632 l 5.1593,-7.07561 c -2.87447,-1.8426 -4.64337,-3.24298 -5.38042,-4.20115 -0.73704,-0.95815 -1.99001,-2.65334 -3.75891,-5.15929 2.57965,0.95816 4.71707,1.17927 6.41227,0.58964 1.6952,-0.58964 3.02187,-1.40039 4.05373,-2.50594 l 0.51593,-5.60153 -1.99001,-5.233 c -1.99002,-0.51593 -3.90633,-0.81075 -5.74894,-0.88445 -1.91631,-0.0737 -3.5378,-0.81075 -4.86447,-2.06372 l -1.99002,-1.7689 c 4.49596,-1.17927 7.14931,-2.28484 8.03376,-3.3167 0.81075,-1.10556 1.17927,-2.21112 1.10557,-3.39039 l -3.75892,-6.85449 -1.69519,-1.03186 c -3.4641,0.66334 -5.60153,0.81074 -6.41228,0.44223 -0.81074,-0.36852 -2.06371,-0.88445 -3.5378,-1.6215 1.03186,-1.91631 1.47409,-3.4641 1.40038,-4.56966 -0.0737,-1.10556 -0.22111,-2.21113 -0.44222,-3.24299 -1.17927,0.22112 -2.35854,0.66334 -3.3904,1.32668 -1.03186,0.66334 -1.84261,1.03186 -2.28483,1.03186 -3.09558,-2.57965 -5.08559,-4.27485 -5.89634,-4.93818 -0.81075,-0.66334 -2.28483,-1.54779 -4.42226,-2.72706 l -2.43224,-0.36852 c 2.28484,-2.80076 4.42226,-4.20115 6.41228,-4.20115 3.02187,0 12.52972,2.87447 15.33048,4.49596 2.80075,1.6215 10.61341,4.20115 15.55159,10.09749 4.93819,5.89633 10.466,10.83452 13.41417,22.84831 2.94817,12.01379 3.75892,11.71897 1.99002,22.25867 -1.7689,10.53971 -1.91631,15.69901 -8.91822,24.54352 -7.0019,8.77081 -10.68711,12.82454 -18.79458,16.65716 -8.10746,3.90632 -12.30861,5.97004 -19.82644,6.41227 -7.51783,0.44222 -15.40418,-1.17927 -17.4679,-1.47409 -1.32668,-0.22111 -2.06372,-0.51593 -2.21113,-0.88445 0,0 0.0737,0.58964 0.36852,1.7689 z"
       style="stroke-width:0.737042" /><path
       id="shape48"
       class="st8"
       d="m 136.8281,198.11907 c -0.73705,-0.44221 -0.66335,-1.32667 0.0737,-2.57964 0.73705,-1.25297 1.32668,-2.06372 1.6952,-2.50594 l -1.25297,-0.58965 c -1.54779,2.72706 -2.13743,4.42226 -1.6952,5.1593 0.58963,1.17928 0.58963,1.17928 1.17927,0.51593 z"
       style="stroke-width:0.737042" /><path
       class="st9"
       d="m 247.75298,180.43005 -6.48598,5.74895 -0.44222,-0.81076 -4.64336,-0.2211 4.05373,7.0019 12.08749,-10.83452 -0.95816,-1.91632 -4.34854,-0.36852 z m -8.10746,-23.73276 -13.41418,11.20304 1.25297,2.13742 5.01189,0.51593 -0.88445,-1.54779 6.9282,-5.89633 0.51593,0.95815 4.64337,0.51593 z"
       id="path157"
       style="stroke-width:0.737042" /><path
       class="st9"
       d="m 243.77295,172.98592 -20.48978,-1.91631 7.96005,5.45413 4.20115,7.22301 4.64337,0.29482 -4.05373,-7.14932 18.86828,1.47409 -6.63338,-5.01189 -3.83262,-7.29672 -4.64337,-0.58964 z"
       id="path159"
       style="stroke-width:0.737042" /></g><g
     id="g1299"
     transform="matrix(1.4372212,0,0,1.4372212,-446.20409,1.8384803)"><g
       id="g684"
       transform="matrix(0.67222365,0,0,0.67222365,401.64779,111.38439)"><g
         fill="#f7a41d"
         id="g629"><g
           id="g607"><polygon
             points="46,22 28,44 19,30 "
             id="polygon601" /><polygon
             points="28,44 22,44 22,95 31,95 20,100 12,117 0,117 0,22 46,22 33,33 "
             shape-rendering="crispEdges"
             id="polygon603" /><polygon
             points="31,95 12,117 4,106 "
             id="polygon605" /></g><g
           id="g619"><polygon
             points="56,22 62,36 37,44 "
             id="polygon609" /><polygon
             points="111,44 37,44 56,32 56,22 111,22 "
             shape-rendering="crispEdges"
             id="polygon611" /><polygon
             points="116,95 97,117 90,104 "
             id="polygon613" /><polygon
             points="97,117 42,117 42,95 116,95 100,104 "
             shape-rendering="crispEdges"
             id="polygon615" /><polygon
             points="3,140 101,22 150,0 52,117 "
             id="polygon617" /></g><g
           id="g627"><polygon
             points="141,22 140,40 122,45 "
             id="polygon621" /><polygon
             points="106,117 120,105 125,95 131,95 131,45 122,45 132,36 141,22 153,22 153,117 "
             shape-rendering="crispEdges"
             id="polygon623" /><polygon
             points="125,95 130,110 106,117 "
             id="polygon625" /></g></g><g
         id="text"><g
           id="g639"><polygon
             points="229,40 177,40 177,22 260,22 260,37 "
             shape-rendering="crispEdges"
             id="polygon633" /><polygon
             points="260,37 207,99 207,103 176,103 229,40 229,37 "
             id="polygon635" /><polygon
             points="176,117 176,103 206,99 261,99 261,117 "
             shape-rendering="crispEdges"
             id="polygon637" /></g><rect
           x="272"
           y="22"
           shape-rendering="crispEdges"
           width="22"
           height="95"
           id="rect641" /><g
           id="g649"><polygon
             points="394,67 394,106 376,106 376,81 360,70 346,67 "
             shape-rendering="crispEdges"
             id="polygon643" /><polygon
             points="360,68 376,81 346,67 "
             id="polygon645" /><path
             d="m 394,106 c -10.2,7.3 -24,12 -37.7,12 -29,0 -51.1,-20.8 -51.1,-48.3 0,-27.3 22.5,-48.1 52,-48.1 14.3,0 29.2,5.5 38.9,14 l -13,15 c -7.1,-6.3 -16.8,-10 -25.9,-10 -17,0 -30.2,12.9 -30.2,29.5 0,16.8 13.3,29.6 30.3,29.6 5.7,0 12.8,-2.3 19,-5.5 z"
             id="path647" /></g></g></g><text
       xml:space="preserve"
       style="font-style:normal;font-variant:normal;font-weight:normal;font-stretch:normal;font-size:77.9889px;font-family:'Ubuntu Mono';-inkscape-font-specification:'Ubuntu Mono';fill:#000000;stroke-width:0.812384"
       x="328.02362"
       y="282.6384"
       id="text899"><tspan
         sodipodi:role="line"
         id="tspan897"
         x="328.02362"
         y="282.6384"
         style="font-style:normal;font-variant:normal;font-weight:bold;font-stretch:normal;font-size:77.9889px;font-family:Verdana;-inkscape-font-specification:'Verdana Bold';stroke-width:0.812384">WARSAW</tspan></text></g></g></svg>
